<?xml version="1.0" standalone="no"?>
<!DOCTYPE svg PUBLIC "-//W3C//DTD SVG 20010904//EN" "http://www.w3.org/TR/2001/REC-SVG-20010904/DTD/svg10.dtd">
<svg version="1.0" xmlns="http://www.w3.org/2000/svg" viewBox="0 0 400 400" width="400" height="400">
  <ellipse style="fill-rule: nonzero; fill: #013eb0;" cx="200" cy="200" rx="200" ry="200"></ellipse>
  <path id="path0" d="M 208.43 101.465 C 204.143 102.16 195.577 104.644 193.695 105.738 C 192.925 106.186 191.575 106.808 190.695 107.12 C 188.009 108.074 180.349 113.125 175.895 116.881 C 169.478 122.291 158.96 133.501 154.895 139.262 C 153.905 140.665 152.546 142.542 151.875 143.433 C 147.196 149.648 141.666 158.936 138.16 166.467 C 136.986 168.989 135.588 171.976 135.054 173.104 C 134.521 174.232 133.708 176.301 133.248 177.701 C 132.788 179.102 132.084 180.89 131.684 181.674 C 131.284 182.459 130.663 184.26 130.304 185.677 C 129.946 187.094 129.141 189.513 128.516 191.053 C 127.891 192.593 127.261 194.483 127.116 195.253 C 126.971 196.023 126.248 198.723 125.511 201.253 C 124.227 205.656 123.203 211.029 122.498 217.053 C 122.318 218.593 121.953 221.653 121.686 223.853 C 121.42 226.053 121.179 231.993 121.152 237.053 L 121.101 246.253 L 122.959 255.096 C 123.98 259.96 125.123 264.534 125.499 265.261 C 125.875 265.988 126.524 267.574 126.941 268.786 C 127.357 269.997 128.238 271.829 128.897 272.856 C 129.556 273.883 130.095 274.914 130.095 275.148 C 130.095 275.554 131.603 277.699 135.679 283.095 C 138.408 286.707 144.558 292.067 147.895 293.741 C 148.555 294.072 149.905 294.802 150.895 295.363 C 159.057 299.987 181.329 301.914 193.287 299.03 C 205.405 296.108 205.723 295.997 215.295 291.322 C 217.385 290.302 219.815 288.997 220.695 288.423 C 221.575 287.849 223.735 286.454 225.495 285.323 C 235.405 278.957 244.893 270.083 253.179 259.428 C 255.333 256.659 262.095 246.406 262.095 245.909 C 262.095 245.651 262.588 244.722 263.191 243.846 C 269.578 234.564 270.725 228.825 266.98 224.898 C 262.904 220.624 258.35 222.051 253.807 229.025 C 252.794 230.58 251.528 232.483 250.993 233.253 C 250.458 234.023 249.399 235.553 248.64 236.653 C 238.96 250.683 227.634 263.426 220.785 267.996 C 220.243 268.357 218.445 269.577 216.789 270.706 C 210.057 275.296 200.574 279.293 193.295 280.607 C 180.384 282.938 180.22 282.957 175.385 282.742 C 162.611 282.173 152.229 276.324 146.116 266.253 C 140.177 256.467 137.153 238.042 139.127 223.659 C 140.604 212.895 141.369 208.509 142.265 205.669 C 142.788 204.01 143.575 201.213 144.015 199.453 C 145.342 194.144 147.894 187.431 151.314 180.253 C 151.943 178.933 152.805 177.043 153.23 176.053 C 153.905 174.478 156.703 169.211 159.498 164.253 C 160.629 162.247 163.836 157.106 165.114 155.253 C 165.645 154.483 166.847 152.718 167.787 151.332 C 169.393 148.962 170.103 148.046 174.203 143.053 C 178.635 137.656 187.553 129.631 193.575 125.621 C 198.692 122.213 200.14 121.406 202.495 120.649 C 203.705 120.26 205.544 119.517 206.582 118.998 C 210.763 116.904 222.057 116.431 227.594 118.118 C 230.171 118.904 231.002 121.893 228.995 123.159 C 203.643 139.154 195.992 165.332 212.592 179.283 C 218.634 184.361 226.551 184.959 238.042 181.207 C 252.53 176.476 261.193 154.091 257.859 130.005 C 257.419 126.83 263.322 122.351 270.437 120.462 C 273.076 119.761 278.579 116.976 279.595 115.827 C 281.47 113.705 280.233 107.754 277.279 104.688 C 275.735 103.085 268.165 103.812 263.793 105.983 C 262.969 106.392 261.159 107.037 259.769 107.418 C 258.38 107.798 255.955 108.726 254.381 109.481 C 250.349 111.413 248.2 111.383 245.414 109.353 C 240.788 105.983 238.274 104.754 230.295 101.962 C 227.176 100.87 213.957 100.57 208.43 101.465 M 242.372 138.094 C 244.551 144.294 241.35 156.719 236.178 162.142 C 229.556 169.084 220.68 168.154 220.703 160.521 C 220.733 150.694 239.848 130.911 242.372 138.094" stroke="none" fill="#fefefe"></path>
</svg>
